<svg width="26" height="26" viewBox="0 0 26 26" fill="none" xmlns="http://www.w3.org/2000/svg">
<mask id="mask0_30_139" style="mask-type:alpha" maskUnits="userSpaceOnUse" x="0" y="0" width="26" height="26">
<rect x="0.749146" y="0.73291" width="24.3254" height="24.3254" fill="#D9D9D9"/>
</mask>
<g mask="url(#mask0_30_139)">
<path d="M16.2058 5.79946C15.851 5.79946 15.5512 5.67699 15.3062 5.43205C15.0613 5.18711 14.9388 4.88726 14.9388 4.53252C14.9388 4.17777 15.0613 3.87793 15.3062 3.63298C15.5512 3.38804 15.851 3.26557 16.2058 3.26557C16.5605 3.26557 16.8604 3.38804 17.1053 3.63298C17.3502 3.87793 17.4727 4.17777 17.4727 4.53252C17.4727 4.88726 17.3502 5.18711 17.1053 5.43205C16.8604 5.67699 16.5605 5.79946 16.2058 5.79946ZM16.2058 22.5232C15.851 22.5232 15.5512 22.4007 15.3062 22.1558C15.0613 21.9108 14.9388 21.611 14.9388 21.2562C14.9388 20.9015 15.0613 20.6016 15.3062 20.3567C15.5512 20.1118 15.851 19.9893 16.2058 19.9893C16.5605 19.9893 16.8604 20.1118 17.1053 20.3567C17.3502 20.6016 17.4727 20.9015 17.4727 21.2562C17.4727 21.611 17.3502 21.9108 17.1053 22.1558C16.8604 22.4007 16.5605 22.5232 16.2058 22.5232ZM20.26 9.34692C19.9052 9.34692 19.6054 9.22445 19.3605 8.9795C19.1155 8.73456 18.993 8.43471 18.993 8.07997C18.993 7.72522 19.1155 7.42538 19.3605 7.18044C19.6054 6.93549 19.9052 6.81302 20.26 6.81302C20.6147 6.81302 20.9146 6.93549 21.1595 7.18044C21.4045 7.42538 21.5269 7.72522 21.5269 8.07997C21.5269 8.43471 21.4045 8.73456 21.1595 8.9795C20.9146 9.22445 20.6147 9.34692 20.26 9.34692ZM20.26 18.9757C19.9052 18.9757 19.6054 18.8532 19.3605 18.6083C19.1155 18.3634 18.993 18.0635 18.993 17.7088C18.993 17.354 19.1155 17.0542 19.3605 16.8092C19.6054 16.5643 19.9052 16.4418 20.26 16.4418C20.6147 16.4418 20.9146 16.5643 21.1595 16.8092C21.4045 17.0542 21.5269 17.354 21.5269 17.7088C21.5269 18.0635 21.4045 18.3634 21.1595 18.6083C20.9146 18.8532 20.6147 18.9757 20.26 18.9757ZM21.7803 14.1613C21.4256 14.1613 21.1257 14.0388 20.8808 13.7939C20.6359 13.549 20.5134 13.2491 20.5134 12.8944C20.5134 12.5396 20.6359 12.2398 20.8808 11.9948C21.1257 11.7499 21.4256 11.6274 21.7803 11.6274C22.1351 11.6274 22.4349 11.7499 22.6799 11.9948C22.9248 12.2398 23.0473 12.5396 23.0473 12.8944C23.0473 13.2491 22.9248 13.549 22.6799 13.7939C22.4349 14.0388 22.1351 14.1613 21.7803 14.1613ZM12.9117 23.03C11.5096 23.03 10.192 22.7639 8.95882 22.2318C7.72566 21.6997 6.65298 20.9775 5.74078 20.0653C4.82858 19.1531 4.10642 18.0804 3.5743 16.8472C3.04218 15.6141 2.77612 14.2965 2.77612 12.8944C2.77612 11.4923 3.04218 10.1747 3.5743 8.94149C4.10642 7.70833 4.82858 6.63565 5.74078 5.72345C6.65298 4.81124 7.72566 4.08908 8.95883 3.55697C10.192 3.02485 11.5096 2.75879 12.9117 2.75879L12.9117 4.78591C10.6481 4.78591 8.73078 5.57141 7.15976 7.14243C5.58875 8.71344 4.80324 10.6308 4.80324 12.8944C4.80324 15.158 5.58875 17.0753 7.15976 18.6463C8.73077 20.2173 10.6481 21.0028 12.9117 21.0028L12.9117 23.03ZM12.9117 14.9215C12.3542 14.9215 11.877 14.723 11.4801 14.326C11.0831 13.929 10.8846 13.4518 10.8846 12.8944C10.8846 12.8099 10.8888 12.7212 10.8973 12.6283C10.9057 12.5354 10.9268 12.4467 10.9606 12.3623L8.85747 10.2591L10.2765 8.84014L12.3796 10.9433C12.4472 10.9264 12.6245 10.901 12.9117 10.8673C13.4692 10.8673 13.9464 11.0657 14.3434 11.4627C14.7403 11.8597 14.9388 12.3369 14.9388 12.8944C14.9388 13.4518 14.7403 13.929 14.3434 14.326C13.9464 14.723 13.4692 14.9215 12.9117 14.9215Z" fill="#1C1B1F"/>
</g>
</svg>
