<svg width="26" height="25" viewBox="0 0 26 25" fill="none" xmlns="http://www.w3.org/2000/svg">
<mask id="mask0_30_156" style="mask-type:alpha" maskUnits="userSpaceOnUse" x="0" y="0" width="26" height="25">
<rect x="0.74939" y="0.291504" width="24.3254" height="24.3254" fill="#D9D9D9"/>
</mask>
<g mask="url(#mask0_30_156)">
<path d="M9.87139 9.41327L9.87139 7.38615L18.9934 7.38615L18.9934 9.41327H9.87139ZM9.87139 12.4539L9.87139 10.4268H18.9934L18.9934 12.4539H9.87139ZM12.9121 22.5895H6.83071C5.98608 22.5895 5.26814 22.2939 4.6769 21.7027C4.08566 21.1114 3.79004 20.3935 3.79004 19.5488L3.79004 16.5082H6.83071L6.83071 2.31836L22.0341 2.31836L22.0341 11.4657C21.6962 11.4319 21.3542 11.4446 21.0079 11.5037C20.6616 11.5629 20.3279 11.6684 20.007 11.8205L20.007 4.34548L8.85783 4.34548L8.85783 16.5082H14.9392L12.9121 18.5353H5.81715L5.81715 19.5488C5.81715 19.836 5.91429 20.0767 6.10855 20.271C6.30282 20.4653 6.54354 20.5624 6.83071 20.5624H12.9121L12.9121 22.5895ZM14.9392 22.5895L14.9392 19.4728L20.5391 13.8983C20.6911 13.7462 20.86 13.6364 21.0459 13.5689C21.2317 13.5013 21.4175 13.4675 21.6033 13.4675C21.806 13.4675 22.0003 13.5055 22.1861 13.5815C22.3719 13.6575 22.5409 13.7716 22.6929 13.9236L23.6304 14.8611C23.7656 15.0132 23.8712 15.1821 23.9472 15.3679C24.0232 15.5537 24.0612 15.7396 24.0612 15.9254C24.0612 16.1112 24.0274 16.3012 23.9598 16.4955C23.8923 16.6898 23.7825 16.8629 23.6304 17.015L18.0559 22.5895H14.9392ZM16.4595 21.0692H17.4224L20.4884 17.9778L20.0323 17.4964L19.5509 17.0403L16.4595 20.1063L16.4595 21.0692ZM20.0323 17.4964L19.5509 17.0403L20.4884 17.9778L20.0323 17.4964Z" fill="#1C1B1F"/>
</g>
</svg>
