<svg width="25" height="24" viewBox="0 0 25 24" fill="none" xmlns="http://www.w3.org/2000/svg">
<mask id="mask0_30_163" style="mask-type:alpha" maskUnits="userSpaceOnUse" x="0" y="0" width="25" height="24">
<rect x="0.588989" y="0.0708008" width="23.4866" height="23.4866" fill="#D9D9D9"/>
</mask>
<g mask="url(#mask0_30_163)">
<path d="M7.4393 19.6416H4.50348C3.96525 19.6416 3.50448 19.45 3.1212 19.0667C2.73791 18.6834 2.54626 18.2226 2.54626 17.6844L2.54626 5.9411C2.54626 5.40287 2.73791 4.94211 3.1212 4.55882C3.50448 4.17553 3.96525 3.98389 4.50348 3.98389L20.1612 3.98389L20.1612 5.9411L4.50348 5.9411L4.50348 17.6844H7.4393L7.4393 19.6416ZM11.3537 17.1951C11.7615 17.1951 12.1081 17.0524 12.3935 16.767C12.6789 16.4815 12.8216 16.1349 12.8216 15.7272C12.8216 15.3194 12.6789 14.9728 12.3935 14.6874C12.1081 14.402 11.7615 14.2593 11.3537 14.2593C10.946 14.2593 10.5994 14.402 10.314 14.6874C10.0285 14.9728 9.88582 15.3194 9.88582 15.7272C9.88582 16.1349 10.0285 16.4815 10.314 16.767C10.5994 17.0524 10.946 17.1951 11.3537 17.1951ZM9.39652 19.6416L9.39652 17.9046C9.08663 17.6273 8.84605 17.3011 8.6748 16.926C8.50354 16.5508 8.41791 16.1512 8.41791 15.7272C8.41791 15.3031 8.50354 14.9035 8.6748 14.5284C8.84605 14.1533 9.08663 13.8271 9.39652 13.5498L9.39652 11.8127H13.311L13.311 13.5498C13.6208 13.8271 13.8614 14.1533 14.0327 14.5284C14.2039 14.9035 14.2896 15.3031 14.2896 15.7272C14.2896 16.1512 14.2039 16.5508 14.0327 16.926C13.8614 17.3011 13.6208 17.6273 13.311 17.9046L13.311 19.6416H9.39652ZM21.1398 19.6416H16.2468C15.9695 19.6416 15.7371 19.5478 15.5495 19.3603C15.3619 19.1727 15.2682 18.9403 15.2682 18.663L15.2682 9.85553C15.2682 9.57826 15.3619 9.34584 15.5495 9.15828C15.7371 8.97071 15.9695 8.87693 16.2468 8.87693H21.1398C21.4171 8.87693 21.6495 8.97071 21.8371 9.15828C22.0246 9.34584 22.1184 9.57826 22.1184 9.85553L22.1184 18.663C22.1184 18.9403 22.0246 19.1727 21.8371 19.3603C21.6495 19.5478 21.4171 19.6416 21.1398 19.6416ZM17.2254 17.6844H20.1612L20.1612 10.8341H17.2254L17.2254 17.6844Z" fill="#1C1B1F"/>
</g>
</svg>
