<svg width="64" height="64" viewBox="0 0 64 64" fill="none" xmlns="http://www.w3.org/2000/svg">
<g clip-path="url(#clip0_138_36)">
<path d="M64 32C64 14.3269 49.6731 0 32 0C14.3269 0 0 14.3269 0 32C0 49.6731 14.3269 64 32 64C49.6731 64 64 49.6731 64 32Z" fill="#7289DA"/>
<path d="M48.049 21.0397C45.1133 18.691 41.5903 17.5168 37.8717 17.321L37.2845 17.9082C40.6117 18.691 43.5475 20.2568 46.2875 22.4097C42.9603 20.6482 39.2417 19.474 35.3273 19.0825C34.153 18.8868 33.1743 18.8868 32.0001 18.8868C30.8258 18.8868 29.8471 18.8868 28.6729 19.0825C24.7585 19.474 21.0398 20.6482 17.7126 22.4097C20.4526 20.2568 23.3885 18.691 26.7157 17.9082L26.1285 17.321C22.4098 17.5168 18.8869 18.691 15.9511 21.0397C12.6239 27.3028 10.8625 34.3486 10.6667 41.5901C13.6025 44.7217 17.7126 46.6789 22.0185 46.6789C22.0185 46.6789 23.3885 45.1132 24.367 43.743C21.8227 43.156 19.4741 41.7858 17.9083 39.633C19.2783 40.4158 20.6483 41.1988 22.0185 41.7858C23.7799 42.5688 25.5414 42.9602 27.3029 43.3517C28.8686 43.5473 30.4343 43.743 32.0001 43.743C33.5658 43.743 35.1315 43.5473 36.6973 43.3517C38.4587 42.9602 40.2202 42.5688 41.9817 41.7858C43.3518 41.1988 44.7218 40.4158 46.0918 39.633C44.5261 41.7858 42.1774 43.156 39.6331 43.743C40.6117 45.1132 41.9817 46.6789 41.9817 46.6789C46.2875 46.6789 50.3977 44.7217 53.3334 41.5901C53.1377 34.3486 51.3762 27.3028 48.049 21.0397ZM25.5414 38.0672C23.5842 38.0672 21.8227 36.3057 21.8227 34.1529C21.8227 32 23.5842 30.2385 25.5414 30.2385C27.4986 30.2385 29.2601 32 29.2601 34.1529C29.2601 36.3057 27.4986 38.0672 25.5414 38.0672ZM38.4587 38.0672C36.5015 38.0672 34.7401 36.3057 34.7401 34.1529C34.7401 32 36.5015 30.2385 38.4587 30.2385C40.4159 30.2385 42.1774 32 42.1774 34.1529C42.1774 36.3057 40.4159 38.0672 38.4587 38.0672Z" fill="white"/>
</g>
<defs>
<clipPath id="clip0_138_36">
<rect width="64" height="64" fill="white"/>
</clipPath>
</defs>
</svg>
