<svg width="26" height="25" viewBox="0 0 26 25" fill="none" xmlns="http://www.w3.org/2000/svg">
<mask id="mask0_30_149" style="mask-type:alpha" maskUnits="userSpaceOnUse" x="0" y="0" width="26" height="25">
<rect x="0.750732" y="0.511719" width="24.3254" height="24.3254" fill="#D9D9D9"/>
</mask>
<g mask="url(#mask0_30_149)">
<path d="M15.4473 18.7565C14.7378 18.7565 14.1381 18.5115 13.6482 18.0217C13.1583 17.5318 12.9134 16.9321 12.9134 16.2226C12.9134 15.5131 13.1583 14.9134 13.6482 14.4235C14.1381 13.9336 14.7378 13.6887 15.4473 13.6887C16.1568 13.6887 16.7565 13.9336 17.2464 14.4235C17.7363 14.9134 17.9812 15.5131 17.9812 16.2226C17.9812 16.9321 17.7363 17.5318 17.2464 18.0217C16.7565 18.5115 16.1568 18.7565 15.4473 18.7565ZM5.8185 22.8107C5.26104 22.8107 4.78382 22.6122 4.38685 22.2152C3.98987 21.8183 3.79138 21.3411 3.79138 20.7836L3.79138 6.59378C3.79138 6.03633 3.98987 5.55911 4.38685 5.16213C4.78382 4.76516 5.26104 4.56667 5.8185 4.56667H6.83206L6.83206 2.53955L8.85917 2.53955L8.85917 4.56667L16.9676 4.56667L16.9676 2.53955H18.9948L18.9948 4.56667H20.0083C20.5658 4.56667 21.043 4.76516 21.44 5.16213C21.8369 5.55911 22.0354 6.03633 22.0354 6.59378L22.0354 20.7836C22.0354 21.3411 21.8369 21.8183 21.44 22.2152C21.043 22.6122 20.5658 22.8107 20.0083 22.8107H5.8185ZM5.8185 20.7836H20.0083L20.0083 10.648H5.8185L5.8185 20.7836ZM5.8185 8.6209H20.0083L20.0083 6.59378L5.8185 6.59378L5.8185 8.6209Z" fill="#1C1B1F"/>
</g>
</svg>
