<svg width="279" height="280" viewBox="0 0 279 280" fill="none" xmlns="http://www.w3.org/2000/svg">
<path d="M139.5 168.601L123.641 189.777C122.234 191.655 121.464 193.977 121.464 196.322V196.84C121.464 202.851 126.347 207.742 132.349 207.742C135.004 207.742 137.516 206.798 139.5 205.058C141.479 206.798 143.996 207.742 146.651 207.742C152.653 207.742 157.536 202.851 157.536 196.84V196.322C157.536 193.977 156.766 191.651 155.359 189.781L139.5 168.601ZM148.518 196.84C148.518 198.366 146.402 199.239 145.33 198.163L139.5 192.324L133.67 198.163C132.598 199.239 130.482 198.366 130.482 196.84V196.322C130.482 195.918 130.612 195.521 130.856 195.201L139.5 183.657L148.144 195.206C148.388 195.521 148.518 195.918 148.518 196.322V196.84Z" fill="#661BC2"/>
<path d="M130.482 140.895L80.8818 129.856V152.455C80.8818 165.507 91.4874 176.129 104.524 176.129C110.836 176.129 116.774 173.668 121.239 169.192C127.199 163.222 130.482 155.282 130.482 146.838V140.895ZM114.863 162.806C112.098 165.575 108.427 167.097 104.524 167.097C96.4611 167.097 89.9 160.525 89.9 152.45V141.111L121.428 148.128C121.116 153.674 118.813 158.845 114.863 162.806Z" fill="#A92481"/>
<path d="M148.518 146.843C148.518 155.286 151.801 163.222 157.761 169.196C162.226 173.668 168.164 176.133 174.476 176.133C187.512 176.129 198.118 165.507 198.118 152.45V129.852L148.518 140.889V146.843ZM189.1 141.116V152.455C189.1 160.525 182.539 167.097 174.476 167.097C170.573 167.097 166.902 165.575 164.137 162.806C160.187 158.845 157.88 153.674 157.567 148.128L189.1 141.116Z" fill="#7821B3"/>
<path d="M252.227 121.935V112.903C252.227 50.6477 201.658 0 139.5 0C77.3414 0 26.7727 50.6477 26.7727 112.903V121.935C16.8254 121.935 8.73633 130.037 8.73633 140V203.226C8.73633 213.189 16.8254 221.29 26.7727 221.29H62.8454C67.8191 221.29 71.8636 217.239 71.8636 212.258V185.563C73.3057 188.035 74.9152 190.401 76.6787 192.668L80.3314 225.621C80.8047 229.875 82.4648 233.895 85.1333 237.231L115.237 274.919C117.82 278.148 121.671 280 125.797 280H153.199C157.329 280 161.18 278.148 163.763 274.915L193.862 237.231C196.531 233.89 198.191 229.871 198.664 225.617L202.321 192.663C204.085 190.396 205.69 188.028 207.136 185.558V212.258C207.136 217.239 211.181 221.29 216.155 221.29H252.227C262.175 221.29 270.264 213.189 270.264 203.226V140C270.264 130.037 262.175 121.935 252.227 121.935ZM234.191 185.161H243.209V194.194H234.191V185.161ZM234.191 203.226H243.209V212.258H234.191V203.226ZM234.191 176.129V171.613C234.191 169.126 236.216 167.097 238.7 167.097C241.183 167.097 243.209 169.126 243.209 171.613V176.129H234.191ZM156.004 74.0508L179.824 40.6452H150.944L156.198 28.8124C196.35 36.7156 225.173 71.5039 225.173 112.903V121.935H216.155C214.499 121.935 212.966 122.418 211.632 123.199C202.889 98.722 182.121 79.7776 156.004 74.0508ZM243.209 112.903V121.935H234.191V112.903C234.191 67.8368 203.281 29.851 159.945 20.3667L163.697 11.9188C209.241 22.8651 243.209 63.9756 243.209 112.903ZM154.615 10.1481L137.069 49.6774H162.299L134.513 88.6379L140.493 58.7097H119.011L138.075 9.06754C138.553 9.06313 139.022 9.03226 139.5 9.03226C144.637 9.03226 149.676 9.42036 154.615 10.1481ZM67.3369 123.181C66.0115 122.41 64.4857 121.935 62.8454 121.935H53.8272V112.903C53.8272 72.5778 82.0817 37.8579 120.684 29.1872L105.88 67.7419H129.489L128.412 73.1379C99.6887 77.2946 76.6347 96.9623 67.3369 123.181ZM35.7909 185.161H44.8091V194.194H35.7909V185.161ZM35.7909 203.226H44.8091V212.258H35.7909V203.226ZM35.7909 176.129V171.613C35.7909 169.126 37.8164 167.097 40.3 167.097C42.7835 167.097 44.8091 169.126 44.8091 171.613V176.129H35.7909ZM35.7909 112.903C35.7909 59.4594 76.3044 15.3279 128.183 9.66513L124.467 19.3435C78.8892 26.6403 44.8091 66.3637 44.8091 112.903V121.935H35.7909V112.903ZM17.7545 203.226V140C17.7545 135.019 21.799 130.968 26.7727 130.968H35.7909V158.896C30.5552 160.766 26.7727 165.734 26.7727 171.613V212.258C21.799 212.258 17.7545 208.207 17.7545 203.226ZM62.8498 212.258H53.8272V171.613C53.8272 165.734 50.0447 160.766 44.8091 158.896V130.968H62.8454V149.001V149.032V152.596V152.622L62.8498 212.258ZM89.2967 224.622L86.9145 203.153C88.2179 204.22 89.4949 205.316 90.8885 206.293C95.9282 216.761 98.6561 228.353 98.8785 239.979L92.1765 231.591C90.5715 229.582 89.5807 227.176 89.2967 224.622ZM156.724 269.27C155.863 270.348 154.579 270.968 153.203 270.968H125.801C124.427 270.968 123.141 270.348 122.28 269.274L107.936 251.318V243.871H116.955V252.903H125.973V243.871H134.991V252.903H144.009V243.871H153.027V252.903H162.045V243.871H171.064V251.322L156.724 269.27ZM186.823 231.591L180.121 239.979C180.344 228.353 183.072 216.761 188.111 206.293C189.509 205.321 190.782 204.225 192.085 203.157L189.699 224.627C189.419 227.176 188.428 229.582 186.823 231.591ZM182.088 199.468L181.092 200.132L180.555 201.201C175.333 211.658 172.213 223.169 171.339 234.834H162.045V225.802H153.027V234.834H144.009V225.802H134.991V234.834H125.973V225.802H116.955V234.834H107.657C106.787 223.169 103.661 211.658 98.4404 201.201L97.9032 200.132L96.908 199.468C81.2297 188.996 71.8636 171.474 71.8636 152.596V149.032C71.8636 116.2 94.9771 88.6246 126.536 82.5406L117.432 128.132L150.191 82.2033C182.819 87.3919 207.136 115.631 207.136 149.032V152.596C207.136 171.474 197.77 188.996 182.088 199.468ZM216.155 152.596V130.968H234.191V158.896C228.955 160.766 225.173 165.734 225.173 171.613V212.258H216.155V152.596ZM261.245 203.226C261.245 208.207 257.201 212.258 252.227 212.258V171.613C252.227 165.734 248.445 160.766 243.209 158.896V130.968H252.227C257.201 130.968 261.245 135.019 261.245 140V203.226Z" fill="url(#paint0_linear_113_82)"/>
<defs>
<linearGradient id="paint0_linear_113_82" x1="8.99999" y1="3.35247e-06" x2="232" y2="294.5" gradientUnits="userSpaceOnUse">
<stop stop-color="#FF0000"/>
<stop offset="0.533433" stop-color="#972C9C"/>
<stop offset="1" stop-color="#1400FF"/>
</linearGradient>
</defs>
</svg>
