<svg width="25" height="25" viewBox="0 0 25 25" fill="none" xmlns="http://www.w3.org/2000/svg">
<mask id="mask0_32_254" style="mask-type:alpha" maskUnits="userSpaceOnUse" x="0" y="0" width="25" height="25">
<rect x="0.588867" y="0.273926" width="24.3254" height="24.3254" fill="#D9D9D9"/>
</mask>
<g mask="url(#mask0_32_254)">
<path d="M12.7015 18.5158C13.0562 18.5158 13.3561 18.3933 13.601 18.1483C13.846 17.9034 13.9684 17.6036 13.9684 17.2488C13.9684 16.8941 13.846 16.5942 13.601 16.3493C13.3561 16.1043 13.0562 15.9819 12.7015 15.9819C12.3467 15.9819 12.0469 16.1043 11.8019 16.3493C11.557 16.5942 11.4345 16.8941 11.4345 17.2488C11.4345 17.6036 11.557 17.9034 11.8019 18.1483C12.0469 18.3933 12.3467 18.5158 12.7015 18.5158ZM11.7893 14.6136H13.6644C13.6644 14.0561 13.7277 13.6169 13.8544 13.2959C13.9811 12.975 14.3401 12.5358 14.9313 11.9783C15.3705 11.5391 15.7168 11.121 15.9702 10.724C16.2236 10.3271 16.3503 9.84984 16.3503 9.29238C16.3503 8.34639 16.004 7.62001 15.3114 7.11323C14.6188 6.60645 13.7995 6.35306 12.8535 6.35306C11.8906 6.35306 11.1093 6.60645 10.5097 7.11323C9.90997 7.62001 9.49188 8.22814 9.25538 8.93763L10.9278 9.59645C11.0122 9.29238 11.2023 8.96297 11.4979 8.60823C11.7935 8.25348 12.2454 8.07611 12.8535 8.07611C13.3941 8.07611 13.7995 8.22392 14.0698 8.51954C14.3401 8.81516 14.4752 9.14035 14.4752 9.49509C14.4752 9.83294 14.3738 10.1497 14.1711 10.4453C13.9684 10.7409 13.715 11.0154 13.411 11.2688C12.6677 11.9276 12.2116 12.426 12.0427 12.7638C11.8737 13.1017 11.7893 13.7183 11.7893 14.6136ZM12.7522 22.57C11.3501 22.57 10.0324 22.3039 8.79928 21.7718C7.56612 21.2397 6.49344 20.5175 5.58123 19.6053C4.66903 18.6931 3.94687 17.6204 3.41475 16.3873C2.88264 15.1541 2.61658 13.8365 2.61658 12.4344C2.61658 11.0323 2.88264 9.7147 3.41475 8.48153C3.94687 7.24837 4.66903 6.17569 5.58123 5.26349C6.49344 4.35128 7.56612 3.62912 8.79928 3.09701C10.0324 2.56489 11.3501 2.29883 12.7522 2.29883C14.1542 2.29883 15.4719 2.56489 16.705 3.09701C17.9382 3.62912 19.0109 4.35128 19.9231 5.26349C20.8353 6.17569 21.5574 7.24837 22.0896 8.48153C22.6217 9.7147 22.8877 11.0323 22.8877 12.4344C22.8877 13.8365 22.6217 15.1541 22.0896 16.3873C21.5574 17.6204 20.8353 18.6931 19.9231 19.6053C19.0109 20.5175 17.9382 21.2397 16.705 21.7718C15.4719 22.3039 14.1542 22.57 12.7522 22.57ZM12.7522 20.5429C15.0158 20.5429 16.9331 19.7574 18.5041 18.1864C20.0751 16.6153 20.8606 14.698 20.8606 12.4344C20.8606 10.1708 20.0751 8.25348 18.5041 6.68247C16.9331 5.11145 15.0158 4.32594 12.7522 4.32594C10.4885 4.32594 8.57123 5.11145 7.00021 6.68247C5.4292 8.25348 4.64369 10.1708 4.64369 12.4344C4.64369 14.698 5.4292 16.6153 7.00021 18.1864C8.57123 19.7574 10.4885 20.5429 12.7522 20.5429Z" fill="#1C1B1F"/>
</g>
</svg>
