<svg width="75" height="75" viewBox="0 0 75 75" fill="none" xmlns="http://www.w3.org/2000/svg">
<path d="M65.685 27.21L58.08 33.3C58.35 34.665 58.5 36.06 58.5 37.5C58.5 49.08 49.08 58.5 37.5 58.5C25.92 58.5 16.5 49.08 16.5 37.5C16.5 26.94 24.33 18.18 34.5 16.71V7.65002C19.35 9.16502 7.5 21.975 7.5 37.5C7.5 54.045 20.955 67.5 37.5 67.5C54.045 67.5 67.5 54.045 67.5 37.5C67.5 33.885 66.855 30.42 65.685 27.21Z" fill="#FFCA28"/>
<path d="M37.5 48C43.299 48 48 43.299 48 37.5C48 31.701 43.299 27 37.5 27C31.701 27 27 31.701 27 37.5C27 43.299 31.701 48 37.5 48Z" fill="#F4511E"/>
<path d="M59.985 17.655L54.87 25.71C52.185 21.765 48.18 18.765 43.5 17.37V8.09998C49.995 9.41998 55.755 12.855 59.985 17.655Z" fill="#F4511E"/>
<path d="M48 13.5H43.5V37.5H48V13.5Z" fill="#F4511E"/>
</svg>
