<svg width="217" height="274" viewBox="0 0 217 274" fill="none" xmlns="http://www.w3.org/2000/svg">
<path d="M208.385 47.1936H168.669V57.9288H187.112C189.897 57.9288 191.994 60.4548 191.994 63.2428V249.594C191.994 252.384 189.897 254.951 187.112 254.951H31.7112C28.9261 254.951 26.8294 252.384 26.8294 249.594V63.2428C26.8294 60.4548 28.9261 57.9288 31.7112 57.9288H49.5238V47.1936H10.439V273.896H208.385V47.1936Z" fill="url(#paint0_linear_108_29)"/>
<path d="M158.583 45.3876C158.583 37.0571 152.455 30.7751 144.33 30.7751H127.063V21.5428C127.063 13.4857 120.838 7.41016 112.583 7.41016H106.543C98.045 7.41016 91.1302 13.7503 91.1302 21.5428V30.7751H74.8028C66.4261 30.7751 59.6102 37.3305 59.6102 45.3876V68.0327H158.583V45.3876ZM49.5238 68.0327H36.9158V244.848H181.908V68.0327H168.669V78.1364H49.5238V68.0327ZM84.6648 116.657H121.551C122.888 116.657 124.171 117.189 125.117 118.137C126.063 119.084 126.594 120.369 126.594 121.709C126.594 123.049 126.063 124.334 125.117 125.281C124.171 126.228 122.888 126.761 121.551 126.761H84.6648C83.3272 126.761 82.0445 126.228 81.0987 125.281C80.1529 124.334 79.6216 123.049 79.6216 121.709C79.6216 120.369 80.1529 119.084 81.0987 118.137C82.0445 117.189 83.3272 116.657 84.6648 116.657ZM84.6648 141.916H159.375C160.712 141.916 161.995 142.449 162.941 143.396C163.887 144.343 164.418 145.628 164.418 146.968C164.418 148.308 163.887 149.593 162.941 150.54C161.995 151.488 160.712 152.02 159.375 152.02H84.6648C83.3272 152.02 82.0445 151.488 81.0987 150.54C80.1529 149.593 79.6216 148.308 79.6216 146.968C79.6216 145.628 80.1529 144.343 81.0987 143.396C82.0445 142.449 83.3272 141.916 84.6648 141.916ZM84.6648 167.176H159.375C160.712 167.176 161.995 167.708 162.941 168.655C163.887 169.603 164.418 170.888 164.418 172.228C164.418 173.567 163.887 174.852 162.941 175.8C161.995 176.747 160.712 177.279 159.375 177.279H84.6648C83.3272 177.279 82.0445 176.747 81.0987 175.8C80.1529 174.852 79.6216 173.567 79.6216 172.228C79.6216 170.888 80.1529 169.603 81.0987 168.655C82.0445 167.708 83.3272 167.176 84.6648 167.176ZM84.6648 192.435H159.375C160.712 192.435 161.995 192.967 162.941 193.915C163.887 194.862 164.418 196.147 164.418 197.487C164.418 198.827 163.887 200.112 162.941 201.059C161.995 202.007 160.712 202.539 159.375 202.539H84.6648C83.3272 202.539 82.0445 202.007 81.0987 201.059C80.1529 200.112 79.6216 198.827 79.6216 197.487C79.6216 196.147 80.1529 194.862 81.0987 193.915C82.0445 192.967 83.3272 192.435 84.6648 192.435ZM59.4488 116.657H66.5446C67.8821 116.657 69.1649 117.189 70.1106 118.137C71.0564 119.084 71.5878 120.369 71.5878 121.709C71.5878 123.049 71.0564 124.334 70.1106 125.281C69.1649 126.228 67.8821 126.761 66.5446 126.761H59.4488C58.1112 126.761 56.8285 126.228 55.8827 125.281C54.9369 124.334 54.4056 123.049 54.4056 121.709C54.4056 120.369 54.9369 119.084 55.8827 118.137C56.8285 117.189 58.1112 116.657 59.4488 116.657ZM59.4488 141.916H66.5446C67.8821 141.916 69.1649 142.449 70.1106 143.396C71.0564 144.343 71.5878 145.628 71.5878 146.968C71.5878 148.308 71.0564 149.593 70.1106 150.54C69.1649 151.488 67.8821 152.02 66.5446 152.02H59.4488C58.1112 152.02 56.8285 151.488 55.8827 150.54C54.9369 149.593 54.4056 148.308 54.4056 146.968C54.4056 145.628 54.9369 144.343 55.8827 143.396C56.8285 142.449 58.1112 141.916 59.4488 141.916ZM59.4488 167.176H66.5446C67.8821 167.176 69.1649 167.708 70.1106 168.655C71.0564 169.603 71.5878 170.888 71.5878 172.228C71.5878 173.567 71.0564 174.852 70.1106 175.8C69.1649 176.747 67.8821 177.279 66.5446 177.279H59.4488C58.1112 177.279 56.8285 176.747 55.8827 175.8C54.9369 174.852 54.4056 173.567 54.4056 172.228C54.4056 170.888 54.9369 169.603 55.8827 168.655C56.8285 167.708 58.1112 167.176 59.4488 167.176ZM59.4488 192.435H66.5446C67.8821 192.435 69.1649 192.967 70.1106 193.915C71.0564 194.862 71.5878 196.147 71.5878 197.487C71.5878 198.827 71.0564 200.112 70.1106 201.059C69.1649 202.007 67.8821 202.539 66.5446 202.539H59.4488C58.1112 202.539 56.8285 202.007 55.8827 201.059C54.9369 200.112 54.4056 198.827 54.4056 197.487C54.4056 196.147 54.9369 194.862 55.8827 193.915C56.8285 192.967 58.1112 192.435 59.4488 192.435Z" fill="url(#paint1_linear_108_29)"/>
<defs>
<linearGradient id="paint0_linear_108_29" x1="-71.5736" y1="-4.5667" x2="270.458" y2="330.495" gradientUnits="userSpaceOnUse">
<stop stop-color="#FF0000"/>
<stop offset="0.463274" stop-color="#82388E"/>
<stop offset="1" stop-color="#000AFC"/>
</linearGradient>
<linearGradient id="paint1_linear_108_29" x1="304.529" y1="324.69" x2="-27.073" y2="-45.1001" gradientUnits="userSpaceOnUse">
<stop stop-color="#FF0000"/>
<stop offset="0.486323" stop-color="#982C92"/>
<stop offset="1" stop-color="#0019FF"/>
</linearGradient>
</defs>
</svg>
