<svg width="222" height="213" viewBox="0 0 222 213" fill="none" xmlns="http://www.w3.org/2000/svg">
<path d="M208.244 0.892334H14.3899C10.8364 0.896411 7.42954 2.30985 4.91682 4.82258C2.40409 7.3353 0.990649 10.7421 0.986572 14.2957V160.538C0.990649 164.092 2.40409 167.499 4.91682 170.011C7.42954 172.524 10.8364 173.938 14.3899 173.942H89.4059L79.5376 202.268H64.4604C63.0987 202.268 61.7928 202.809 60.8299 203.772C59.867 204.735 59.326 206.041 59.326 207.403C59.326 208.764 59.867 210.07 60.8299 211.033C61.7928 211.996 63.0987 212.537 64.4604 212.537H158.173C159.535 212.537 160.841 211.996 161.804 211.033C162.767 210.07 163.308 208.764 163.308 207.403C163.308 206.041 162.767 204.735 161.804 203.772C160.841 202.809 159.535 202.268 158.173 202.268H143.096L133.228 173.942H208.244C211.797 173.938 215.204 172.524 217.717 170.011C220.23 167.499 221.643 164.092 221.647 160.538V14.2957C221.643 10.7421 220.23 7.3353 217.717 4.82258C215.204 2.30985 211.797 0.896411 208.244 0.892334ZM90.4096 202.268L100.278 173.942H122.351L132.222 202.268H90.4096ZM211.378 160.538C211.378 162.266 209.972 163.673 208.244 163.673H14.3899C13.5619 163.662 12.7708 163.329 12.1852 162.743C11.5997 162.158 11.266 161.366 11.2553 160.538V141.623H211.378V160.538ZM211.378 131.355H11.2553V14.2957C11.2553 12.5962 12.6904 11.1611 14.3899 11.1611H208.244C209.943 11.1611 211.378 12.5962 211.378 14.2957V131.355Z" fill="url(#paint0_linear_101_64)"/>
<defs>
<linearGradient id="paint0_linear_101_64" x1="248.219" y1="191.878" x2="0.719226" y2="-31.6216" gradientUnits="userSpaceOnUse">
<stop stop-color="#FF0000"/>
<stop offset="0.491059" stop-color="#8448B4"/>
<stop offset="1" stop-color="#0047FF"/>
</linearGradient>
</defs>
</svg>
