<svg width="302" height="201" viewBox="0 0 302 201" fill="none" xmlns="http://www.w3.org/2000/svg">
<g clip-path="url(#clip0_135_134)">
<path d="M0.621338 169.398C0.884517 178.028 4.56487 186.2 10.8553 192.125C17.1457 198.049 25.5327 201.241 34.1769 201H269.066C277.71 201.241 286.097 198.049 292.387 192.125C298.678 186.2 302.358 178.028 302.621 169.398V48.3516C302.358 39.7224 298.678 31.5495 292.387 25.6254C286.097 19.7012 277.71 16.5094 269.066 16.75H34.1769C25.5327 16.5094 17.1457 19.7012 10.8553 25.6254C4.56487 31.5495 0.884517 39.7224 0.621338 48.3516V169.398Z" fill="url(#paint0_linear_135_134)"/>
<path d="M173.992 0H129.251C123.073 0 118.066 4.99949 118.066 11.1667V22.3333C118.066 28.5005 123.073 33.5 129.251 33.5H173.992C180.169 33.5 185.177 28.5005 185.177 22.3333V11.1667C185.177 4.99949 180.169 0 173.992 0Z" fill="black"/>
<path d="M123.994 128.919L115.102 120.712C117.265 112.968 117.265 104.782 115.102 97.0384L123.938 88.8309C125.024 87.7978 125.718 86.4209 125.901 84.9347C126.085 83.4485 125.747 81.9447 124.945 80.6792L120.191 73.365C119.382 72.1342 118.173 71.2185 116.768 70.7712C115.363 70.324 113.847 70.3724 112.473 70.9084L101.288 75.5984C96.8889 71.8763 91.7673 69.1012 86.244 67.4467L84.1747 55.4984C83.8853 54.0011 83.076 52.6538 81.8892 51.6937C80.7025 50.7336 79.2145 50.2224 77.6873 50.25H68.9629C67.4644 50.2616 66.0162 50.7907 64.8642 51.7474C63.7122 52.7041 62.9274 54.0295 62.6433 55.4984L60.574 67.4467C55.0033 69.1362 49.83 71.9274 45.3622 75.6542L34.177 70.9642C32.7958 70.3937 31.2587 70.3213 29.8298 70.7594C28.401 71.1976 27.1696 72.1189 26.3473 73.365L21.5936 80.6792C20.7916 81.9447 20.4536 83.4485 20.6371 84.9347C20.8207 86.4209 21.5144 87.7978 22.6003 88.8309L31.4925 97.0942C30.4561 100.917 29.9295 104.859 29.9266 108.819C29.9164 112.821 30.4622 116.804 31.5484 120.656L22.6562 128.975C21.5796 130.014 20.8923 131.39 20.7091 132.873C20.5259 134.357 20.8579 135.858 21.6496 137.127L26.4033 144.441C27.2303 145.666 28.4522 146.573 29.8662 147.009C31.2802 147.446 32.8013 147.387 34.177 146.842L45.3622 142.096C49.7856 145.826 54.9232 148.619 60.4622 150.303L62.5314 162.252C62.8156 163.721 63.6003 165.046 64.7523 166.003C65.9043 166.959 67.3526 167.488 68.851 167.5H77.5755C79.0739 167.488 80.5222 166.959 81.6742 166.003C82.8262 165.046 83.611 163.721 83.8951 162.252L85.9644 150.303C91.5693 148.615 96.7794 145.824 101.288 142.096L112.473 146.786C113.863 147.36 115.409 147.435 116.847 146.997C118.286 146.559 119.527 145.636 120.359 144.385L125.113 137.071C125.89 135.79 126.204 134.281 126 132.797C125.797 131.313 125.088 129.944 123.994 128.919ZM73.3251 128.417C69.4205 128.417 65.6037 127.261 62.3571 125.095C59.1106 122.929 56.5802 119.851 55.086 116.25C53.5918 112.649 53.2009 108.686 53.9626 104.862C54.7243 101.039 56.6046 97.5274 59.3655 94.771C62.1265 92.0147 65.6441 90.1375 69.4737 89.3771C73.3032 88.6166 77.2726 89.0069 80.88 90.4986C84.4873 91.9904 87.5706 94.5165 89.7399 97.7577C91.9091 100.999 93.067 104.809 93.067 108.708C93.0522 113.93 90.9675 118.935 87.2684 122.628C83.5693 126.321 78.5564 128.402 73.3251 128.417Z" fill="black"/>
<path d="M262.15 83.75H170.263C168.78 83.75 167.357 83.1617 166.309 82.1147C165.26 81.0676 164.671 79.6474 164.671 78.1666C164.671 76.6859 165.26 75.2657 166.309 74.2186C167.357 73.1716 168.78 72.5833 170.263 72.5833H262.15C263.633 72.5833 265.055 73.1716 266.104 74.2186C267.153 75.2657 267.742 76.6859 267.742 78.1666C267.742 79.6474 267.153 81.0676 266.104 82.1147C265.055 83.1617 263.633 83.75 262.15 83.75ZM262.15 150.75H170.263C168.78 150.75 167.357 150.162 166.309 149.115C165.26 148.068 164.671 146.647 164.671 145.167C164.671 143.686 165.26 142.266 166.309 141.219C167.357 140.172 168.78 139.583 170.263 139.583H262.15C263.633 139.583 265.055 140.172 266.104 141.219C267.153 142.266 267.742 143.686 267.742 145.167C267.742 146.647 267.153 148.068 266.104 149.115C265.055 150.162 263.633 150.75 262.15 150.75ZM270.93 117.25H184.636C183.153 117.25 181.73 116.662 180.682 115.615C179.633 114.568 179.044 113.147 179.044 111.667C179.044 110.186 179.633 108.766 180.682 107.719C181.73 106.672 183.153 106.083 184.636 106.083H270.93C272.413 106.083 273.836 106.672 274.884 107.719C275.933 108.766 276.523 110.186 276.523 111.667C276.523 113.147 275.933 114.568 274.884 115.615C273.836 116.662 272.413 117.25 270.93 117.25Z" fill="black"/>
<path d="M187.041 89.3333C184.829 89.3333 182.666 88.6784 180.827 87.4514C178.988 86.2244 177.554 84.4804 176.707 82.44C175.861 80.3995 175.639 78.1543 176.071 75.9882C176.502 73.822 177.568 71.8323 179.132 70.2706C180.696 68.709 182.689 67.6454 184.859 67.2146C187.029 66.7837 189.278 67.0048 191.322 67.85C193.365 68.6952 195.112 70.1265 196.341 71.9628C197.57 73.7992 198.226 75.9581 198.226 78.1667C198.226 81.1283 197.048 83.9685 194.95 86.0627C192.853 88.1569 190.008 89.3333 187.041 89.3333ZM254.152 122.833C251.94 122.833 249.777 122.178 247.938 120.951C246.099 119.724 244.665 117.98 243.818 115.94C242.972 113.9 242.75 111.654 243.182 109.488C243.614 107.322 244.679 105.332 246.243 103.771C247.807 102.209 249.8 101.145 251.97 100.715C254.14 100.284 256.389 100.505 258.433 101.35C260.476 102.195 262.223 103.626 263.452 105.463C264.681 107.299 265.337 109.458 265.337 111.667C265.337 114.628 264.159 117.469 262.061 119.563C259.964 121.657 257.119 122.833 254.152 122.833ZM198.226 156.333C196.014 156.333 193.852 155.678 192.012 154.451C190.173 153.224 188.739 151.48 187.893 149.44C187.046 147.4 186.824 145.154 187.256 142.988C187.688 140.822 188.753 138.832 190.317 137.271C191.881 135.709 193.874 134.645 196.044 134.215C198.214 133.784 200.463 134.005 202.507 134.85C204.551 135.695 206.297 137.126 207.526 138.963C208.756 140.799 209.412 142.958 209.412 145.167C209.412 148.128 208.233 150.969 206.135 153.063C204.038 155.157 201.193 156.333 198.226 156.333Z" fill="black"/>
<circle cx="151.5" cy="16.5" r="13.119" fill="black" stroke="#727272" stroke-width="2.7619"/>
<circle cx="151.5" cy="16.5" r="8.28571" fill="#FF0000"/>
<circle cx="151.5" cy="16.5" r="8.28571" stroke="#3C3C3C" stroke-width="1.38095"/>
<circle cx="151.5" cy="16.5" r="8.28571" stroke="#3C3C3C" stroke-width="1.38095"/>
<circle cx="151.5" cy="16.5" r="4.83333" fill="#FF1F00"/>
<circle cx="151.5" cy="16.5" r="4.83333" stroke="black"/>
<circle cx="151.5" cy="16.5" r="1.5" fill="#FFB800"/>
<circle cx="151.5" cy="16.5" r="1.5" stroke="black"/>
</g>
<defs>
<linearGradient id="paint0_linear_135_134" x1="-68.354" y1="-50.25" x2="274.732" y2="280.355" gradientUnits="userSpaceOnUse">
<stop stop-color="#FF0000"/>
<stop offset="1" stop-color="#0019FF"/>
</linearGradient>
<clipPath id="clip0_135_134">
<rect width="302" height="201" fill="white"/>
</clipPath>
</defs>
</svg>
