<svg width="257" height="257" viewBox="0 0 257 257" fill="none" xmlns="http://www.w3.org/2000/svg">
<path d="M118.89 179.203H137.744C139.105 179.203 140.411 178.662 141.374 177.7C142.337 176.737 142.878 175.431 142.878 174.069C142.878 172.707 142.337 171.401 141.374 170.438C140.411 169.476 139.105 168.935 137.744 168.935H118.89C117.528 168.935 116.222 169.476 115.26 170.438C114.297 171.401 113.756 172.707 113.756 174.069C113.756 175.431 114.297 176.737 115.26 177.7C116.222 178.662 117.528 179.203 118.89 179.203Z" fill="url(#paint0_linear_101_62)"/>
<path d="M225.244 22.8923H31.3899C27.8364 22.8964 24.4295 24.3099 21.9168 26.8226C19.4041 29.3353 17.9906 32.7421 17.9866 36.2957V182.538C17.9906 186.092 19.4041 189.499 21.9168 192.011C24.4295 194.524 27.8364 195.938 31.3899 195.942H106.406L96.5376 224.268H81.4604C80.0987 224.268 78.7928 224.809 77.8299 225.772C76.867 226.735 76.326 228.041 76.326 229.403C76.326 230.764 76.867 232.07 77.8299 233.033C78.7928 233.996 80.0987 234.537 81.4604 234.537H175.173C176.535 234.537 177.841 233.996 178.804 233.033C179.767 232.07 180.308 230.764 180.308 229.403C180.308 228.041 179.767 226.735 178.804 225.772C177.841 224.809 176.535 224.268 175.173 224.268H160.096L150.228 195.942H225.244C228.797 195.938 232.204 194.524 234.717 192.011C237.23 189.499 238.643 186.092 238.647 182.538V36.2957C238.643 32.7421 237.23 29.3353 234.717 26.8226C232.204 24.3099 228.797 22.8964 225.244 22.8923ZM107.41 224.268L117.278 195.942H139.351L149.222 224.268H107.41ZM228.378 182.538C228.378 184.266 226.972 185.673 225.244 185.673H31.3899C30.5619 185.662 29.7708 185.329 29.1852 184.743C28.5997 184.158 28.266 183.366 28.2553 182.538V163.623H228.378V182.538ZM228.378 153.355H28.2553V36.2957C28.2553 34.5962 29.6904 33.1611 31.3899 33.1611H225.244C226.943 33.1611 228.378 34.5962 228.378 36.2957V153.355Z" fill="url(#paint1_linear_101_62)"/>
<path d="M128.719 51.3784L181.547 128.582H75.8917L128.719 51.3784Z" fill="url(#paint2_linear_101_62)"/>
<line x1="86.7817" y1="61.6245" x2="170.657" y2="64.0073" stroke="#0B0F19" stroke-width="2.38281"/>
<path d="M77.2506 122.386H180.188" stroke="#0B0F19" stroke-width="2.38281"/>
<path d="M128.719 145.378V99.3784" stroke="#0B0F19" stroke-width="2.38281"/>
<path d="M80.5864 114.761H174.946" stroke="#0B0F19" stroke-width="2.38281"/>
<line x1="86.7817" y1="106.898" x2="170.657" y2="109.281" stroke="#0B0F19" stroke-width="2.38281"/>
<line x1="86.7817" y1="99.2729" x2="170.657" y2="101.656" stroke="#0B0F19" stroke-width="2.38281"/>
<path d="M86.7817 91.6479H170.657" stroke="#0B0F19" stroke-width="2.38281"/>
<line x1="86.7817" y1="84.0229" x2="170.657" y2="86.4058" stroke="#0B0F19" stroke-width="2.38281"/>
<line x1="86.7817" y1="76.3979" x2="170.657" y2="78.7808" stroke="#0B0F19" stroke-width="2.38281"/>
<line x1="86.7817" y1="69.2498" x2="170.657" y2="71.6326" stroke="#0B0F19" stroke-width="2.38281"/>
<path d="M71.7193 61.8998L129.473 99.9432M71.7193 61.8998L129.473 99.9432" stroke="#0B0F19" stroke-width="2.38281"/>
<path d="M129.096 99.2206L186.315 60.3784M129.096 99.2206L186.315 60.3784" stroke="#0B0F19" stroke-width="2.38281"/>
<defs>
<linearGradient id="paint0_linear_101_62" x1="128.317" y1="168.935" x2="128.317" y2="179.203" gradientUnits="userSpaceOnUse">
<stop stop-color="#D479FF"/>
<stop offset="1" stop-color="#4D1069"/>
</linearGradient>
<linearGradient id="paint1_linear_101_62" x1="265.219" y1="213.878" x2="17.7192" y2="-9.62157" gradientUnits="userSpaceOnUse">
<stop stop-color="#FF0000"/>
<stop offset="0.491059" stop-color="#8448B4"/>
<stop offset="1" stop-color="#0047FF"/>
</linearGradient>
<linearGradient id="paint2_linear_101_62" x1="54.2192" y1="55.3784" x2="189.719" y2="166.378" gradientUnits="userSpaceOnUse">
<stop stop-color="#1647F2"/>
<stop offset="1" stop-color="#DE1330"/>
</linearGradient>
</defs>
</svg>
