<svg width="248" height="279" viewBox="0 0 248 279" fill="none" xmlns="http://www.w3.org/2000/svg">
<g clip-path="url(#clip0_135_145)">
<path d="M139.5 271.028C138.901 271.028 138.299 270.891 137.747 270.623C71.8343 238.344 30.8893 179.687 30.8893 117.55V48.1351C30.8893 46.4342 31.9674 44.924 33.573 44.3674L138.198 8.18843C139.039 7.9004 139.961 7.9004 140.802 8.18843L245.427 44.3674C247.033 44.924 248.111 46.4342 248.111 48.1351V117.55C248.111 179.687 207.166 238.344 141.253 270.623C140.701 270.891 140.099 271.028 139.5 271.028ZM38.8607 50.9726V117.55C38.8607 176.075 77.3692 231.494 139.5 262.593C201.631 231.494 240.139 176.075 240.139 117.55V50.9726L139.5 16.1715L38.8607 50.9726Z" fill="url(#paint0_linear_135_145)"/>
<path d="M181.179 213.063H97.8213C89.7428 213.063 83.1707 206.727 83.1707 198.942V129.441C83.1707 127.238 84.9553 125.456 87.1564 125.456H191.844C194.045 125.456 195.829 127.238 195.829 129.441V198.942C195.829 206.727 189.257 213.063 181.179 213.063ZM91.1421 133.427V198.942C91.1421 202.332 94.1392 205.092 97.8213 205.092H181.179C184.861 205.092 187.858 202.332 187.858 198.942V133.427H91.1421Z" fill="url(#paint1_linear_135_145)"/>
<path d="M175.7 133.427H103.3C101.099 133.427 99.314 131.644 99.314 129.441V97.3065C99.314 75.1477 117.341 57.1224 139.5 57.1224C161.659 57.1224 179.686 75.1477 179.686 97.3065V129.441C179.686 131.644 177.901 133.427 175.7 133.427ZM107.285 125.456H171.715V97.3065C171.715 79.546 157.263 65.0939 139.5 65.0939C121.738 65.0939 107.285 79.546 107.285 97.3065V125.456ZM152.806 194.365H127.302C126.077 194.365 124.921 193.801 124.164 192.839C123.409 191.874 123.139 190.617 123.431 189.429L126.959 175.071C122.849 171.385 120.465 166.122 120.465 160.517C120.465 149.716 129.254 140.928 140.055 140.928C150.856 140.928 159.643 149.716 159.643 160.517C159.643 166.122 157.259 171.385 153.148 175.071L156.677 189.429C156.969 190.617 156.698 191.874 155.943 192.839C155.186 193.801 154.03 194.365 152.806 194.365ZM132.385 186.393H147.722L144.792 174.467C144.391 172.837 145.058 171.128 146.459 170.198C149.723 168.03 151.671 164.414 151.671 160.517C151.671 154.111 146.459 148.899 140.055 148.899C133.648 148.899 128.436 154.111 128.436 160.517C128.436 164.414 130.384 168.03 133.648 170.198C135.049 171.128 135.717 172.837 135.316 174.467L132.385 186.393Z" fill="url(#paint2_linear_135_145)"/>
</g>
<defs>
<linearGradient id="paint0_linear_135_145" x1="-43.5" y1="-17.5" x2="259" y2="325.5" gradientUnits="userSpaceOnUse">
<stop stop-color="#FF0000"/>
<stop offset="1" stop-color="#001AFF"/>
</linearGradient>
<linearGradient id="paint1_linear_135_145" x1="-12" y1="53.5" x2="212" y2="304.5" gradientUnits="userSpaceOnUse">
<stop stop-color="#FF0000"/>
<stop offset="1" stop-color="#001AFF"/>
</linearGradient>
<linearGradient id="paint2_linear_135_145" x1="-14" y1="-5" x2="230.5" y2="287" gradientUnits="userSpaceOnUse">
<stop stop-color="#FF0000"/>
<stop offset="1" stop-color="#001AFF"/>
</linearGradient>
<clipPath id="clip0_135_145">
<rect width="248" height="279" fill="white"/>
</clipPath>
</defs>
</svg>
