<svg width="276" height="276" viewBox="0 0 276 276" fill="none" xmlns="http://www.w3.org/2000/svg">
<path d="M194.8 69.7374L200.898 75.8353C202.541 74.266 204.726 73.3903 206.998 73.3903C209.27 73.3903 211.455 74.266 213.098 75.8353L219.196 69.7374C215.908 66.604 211.54 64.8561 206.998 64.8561C202.456 64.8561 198.088 66.604 194.8 69.7374Z" fill="url(#paint0_linear_134_119)"/>
<path d="M182.604 57.5417L188.702 63.6396C193.555 58.7874 200.136 56.0616 206.998 56.0616C213.86 56.0616 220.441 58.7874 225.294 63.6396L231.392 57.5417C224.922 51.0726 216.147 47.4384 206.998 47.4384C197.849 47.4384 189.074 51.0726 182.604 57.5417Z" fill="url(#paint1_linear_134_119)"/>
<path d="M207 38.8125C212.666 38.797 218.278 39.9054 223.512 42.0736C228.746 44.2417 233.499 47.4266 237.494 51.4438L243.592 45.3459C233.887 35.6417 220.724 30.1899 207 30.1899C193.276 30.1899 180.113 35.6417 170.408 45.3459L176.506 51.4438C180.501 47.4262 185.253 44.2411 190.488 42.0729C195.722 39.9047 201.334 38.7965 207 38.8125Z" fill="url(#paint2_linear_134_119)"/>
<path d="M207 90.5625C209.382 90.5625 211.312 88.6317 211.312 86.25C211.312 83.8683 209.382 81.9375 207 81.9375C204.618 81.9375 202.688 83.8683 202.688 86.25C202.688 88.6317 204.618 90.5625 207 90.5625Z" fill="url(#paint3_linear_134_119)"/>
<path d="M112.125 176.636V207C112.125 208.144 112.579 209.241 113.388 210.049C114.197 210.858 115.294 211.312 116.438 211.312H159.562C160.706 211.312 161.803 210.858 162.612 210.049C163.421 209.241 163.875 208.144 163.875 207V163.875C163.875 162.731 163.421 161.634 162.612 160.826C161.803 160.017 160.706 159.562 159.562 159.562H129.409C128.28 159.564 127.196 160.008 126.391 160.8L113.419 173.561C113.01 173.962 112.685 174.44 112.463 174.968C112.24 175.496 112.126 176.063 112.125 176.636ZM120.75 178.443L131.173 168.188H155.25V202.688H120.75V178.443Z" fill="url(#paint4_linear_134_119)"/>
<path d="M112.125 163.875C114.507 163.875 116.438 161.944 116.438 159.562C116.438 157.181 114.507 155.25 112.125 155.25C109.743 155.25 107.812 157.181 107.812 159.562C107.812 161.944 109.743 163.875 112.125 163.875Z" fill="url(#paint5_linear_134_119)"/>
<path d="M265.262 121.354L242.147 107.813H258.75C259.894 107.813 260.991 107.358 261.799 106.549C262.608 105.741 263.063 104.644 263.063 103.5V12.9375C263.063 11.7938 262.608 10.6969 261.799 9.8881C260.991 9.07935 259.894 8.625 258.75 8.625H155.25C154.106 8.625 153.009 9.07935 152.201 9.8881C151.392 10.6969 150.938 11.7938 150.938 12.9375V54.3375L140.156 48.0413C139.494 47.6598 138.743 47.459 137.978 47.459C137.214 47.459 136.463 47.6598 135.801 48.0413L10.7381 121.354C10.0978 121.739 9.56721 122.283 9.1972 122.932C8.8272 123.582 8.63017 124.315 8.625 125.063V142.313C8.625 143.456 9.07935 144.553 9.8881 145.362C10.6969 146.171 11.7938 146.625 12.9375 146.625H25.875V263.063C25.875 264.206 26.3294 265.303 27.1381 266.112C27.9469 266.921 29.0438 267.375 30.1875 267.375H245.813C246.956 267.375 248.053 266.921 248.862 266.112C249.671 265.303 250.125 264.206 250.125 263.063V146.625H263.063C264.206 146.625 265.303 146.171 266.112 145.362C266.921 144.553 267.375 143.456 267.375 142.313V125.063C267.37 124.315 267.173 123.582 266.803 122.932C266.433 122.283 265.902 121.739 265.262 121.354ZM159.563 17.25H254.438V99.1875H159.563V17.25ZM258.75 138H245.813C244.669 138 243.572 138.454 242.763 139.263C241.954 140.072 241.5 141.169 241.5 142.313V258.75H34.5V142.313C34.5 141.169 34.0456 140.072 33.2369 139.263C32.4281 138.454 31.3312 138 30.1875 138H17.25V127.521L138 56.7525L150.938 64.2994V103.5C150.938 104.644 151.392 105.741 152.201 106.549C153.009 107.358 154.106 107.813 155.25 107.813H225.113L258.75 127.521V138Z" fill="url(#paint6_linear_134_119)"/>
<path d="M202.688 189.75V181.125H181.125V168.188H198.375V159.562H181.125V146.625C181.125 145.481 180.671 144.384 179.862 143.576C179.053 142.767 177.956 142.312 176.812 142.312H163.875V125.062H155.25V142.312H142.312V120.75H133.688V142.312H120.75V125.062H112.125V142.312H99.1875C98.0438 142.312 96.9468 142.767 96.1381 143.576C95.3293 144.384 94.875 145.481 94.875 146.625V159.562H77.625V168.188H94.875V181.125H73.3125V189.75H94.875V202.688H77.625V211.312H94.875V224.25C94.875 225.394 95.3293 226.491 96.1381 227.299C96.9468 228.108 98.0438 228.562 99.1875 228.562H112.125V245.812H120.75V228.562H133.688V250.125H142.312V228.562H155.25V245.812H163.875V228.562H176.812C177.956 228.562 179.053 228.108 179.862 227.299C180.671 226.491 181.125 225.394 181.125 224.25V211.312H198.375V202.688H181.125V189.75H202.688ZM172.5 219.938H103.5V150.938H172.5V219.938Z" fill="url(#paint7_linear_134_119)"/>
<defs>
<linearGradient id="paint0_linear_134_119" x1="3.8813" y1="283.836" x2="273.757" y2="-0.62962" gradientUnits="userSpaceOnUse">
<stop stop-color="#FFF200"/>
<stop offset="1" stop-color="#CD118C"/>
</linearGradient>
<linearGradient id="paint1_linear_134_119" x1="-2.20792" y1="278.057" x2="267.668" y2="-6.40836" gradientUnits="userSpaceOnUse">
<stop stop-color="#FFF200"/>
<stop offset="1" stop-color="#CD118C"/>
</linearGradient>
<linearGradient id="paint2_linear_134_119" x1="-8.30156" y1="272.278" x2="261.575" y2="-12.1872" gradientUnits="userSpaceOnUse">
<stop stop-color="#FFF200"/>
<stop offset="1" stop-color="#CD118C"/>
</linearGradient>
<linearGradient id="paint3_linear_134_119" x1="12.1268" y1="291.659" x2="282.003" y2="7.19325" gradientUnits="userSpaceOnUse">
<stop stop-color="#FFF200"/>
<stop offset="1" stop-color="#CD118C"/>
</linearGradient>
<linearGradient id="paint4_linear_134_119" x1="260.854" y1="267.585" x2="66.7561" y2="23" gradientUnits="userSpaceOnUse">
<stop stop-color="#000AFF"/>
<stop offset="1" stop-color="#FF0000"/>
</linearGradient>
<linearGradient id="paint5_linear_134_119" x1="-1.19887" y1="279.014" x2="268.677" y2="-5.451" gradientUnits="userSpaceOnUse">
<stop stop-color="#8D0471"/>
<stop offset="1" stop-color="#CD118C"/>
</linearGradient>
<linearGradient id="paint6_linear_134_119" x1="298.439" y1="303.488" x2="-60.5854" y2="-41.5122" gradientUnits="userSpaceOnUse">
<stop stop-color="#000AFF"/>
<stop offset="1" stop-color="#FF0000"/>
</linearGradient>
<linearGradient id="paint7_linear_134_119" x1="290.585" y1="303.488" x2="-8.97562" y2="-17.9512" gradientUnits="userSpaceOnUse">
<stop stop-color="#000AFF"/>
<stop offset="1" stop-color="#FF0000"/>
</linearGradient>
</defs>
</svg>
