<svg width="106" height="78" viewBox="0 0 106 78" fill="none" xmlns="http://www.w3.org/2000/svg">
<path fill-rule="evenodd" clip-rule="evenodd" d="M52.8275 0L59.0234 9.05469H46.6317L52.8275 0ZM45.0012 11.4375H60.6539L64.2411 16.6799H41.414L45.0012 11.4375ZM39.7835 19.0627L36.5227 23.8281H69.1323L65.8716 19.0627H39.7835ZM34.8923 26.2109H70.7628L74.3499 31.4531H31.3052L34.8923 26.2109ZM26.0877 39.0781L29.4823 34.1171L37.0137 39.0781H26.0877ZM24.4572 41.4609H40.631L48.5892 46.7031H20.8701L24.4572 41.4609ZM52.8397 46.6497L44.9627 41.4609H60.4834L52.8397 46.6497ZM63.9936 39.0781H41.3453L33.3872 33.8359H71.716L63.9936 39.0781ZM64.726 41.4609H81.1979L84.7849 46.7031H57.0036L64.726 41.4609ZM68.2362 39.0781L75.9586 33.8359H75.9804L79.5674 39.0781H68.2362ZM19.2397 49.0859L15.6526 54.3281H51.6361V49.0859H19.2397ZM54.0189 49.0859V54.3281H90.0025L86.4154 49.0859H54.0189ZM54.0189 56.7109H91.633L95.3831 62.1914H54.0189V56.7109ZM14.0221 56.7109H51.6361V62.1914H10.272L14.0221 56.7109ZM8.64154 64.5742L5.05465 69.8162H51.6361V64.5742H8.64154ZM54.0189 64.5742V69.8162H100.6L97.0135 64.5742H54.0189ZM3.42417 72.199H51.6361V77.2031H0L3.42417 72.199ZM54.0189 72.199V77.2031H105.655L102.231 72.199H54.0189Z" fill="url(#paint0_linear_251_8)"/>
<defs>
<linearGradient id="paint0_linear_251_8" x1="-21.6725" y1="4" x2="113.828" y2="115" gradientUnits="userSpaceOnUse">
<stop stop-color="#1647F2"/>
<stop offset="1" stop-color="#DE1330"/>
</linearGradient>
</defs>
</svg>
