<svg width="62" height="62" viewBox="0 0 62 62" fill="none" xmlns="http://www.w3.org/2000/svg">
<g clip-path="url(#clip0_138_46)">
<path d="M62 31C62 13.8792 48.1208 0 31 0C13.8792 0 0 13.8792 0 31C0 48.1208 13.8792 62 31 62C48.1208 62 62 48.1208 62 31Z" fill="#419FD9"/>
<path d="M62 31C62 13.8792 48.1208 0 31 0C13.8792 0 0 13.8792 0 31C0 48.1208 13.8792 62 31 62C48.1208 62 62 48.1208 62 31Z" fill="url(#paint0_linear_138_46)"/>
<path d="M13.9337 30.3167C22.9487 26.3066 28.9599 23.6628 31.9678 22.3853C40.5556 18.7383 42.3402 18.1048 43.5033 18.0837C43.7591 18.0793 44.331 18.144 44.7016 18.4509C45.0145 18.7102 45.1005 19.0603 45.1417 19.306C45.1829 19.5518 45.2342 20.1116 45.1933 20.549C44.728 25.5415 42.7144 37.6572 41.6898 43.249C41.2564 45.6151 40.4028 46.4084 39.5765 46.486C37.7807 46.6547 36.417 45.2743 34.6778 44.1101C31.956 42.2886 30.4185 41.1545 27.7765 39.3771C24.7234 37.3228 26.7026 36.1938 28.4426 34.3485C28.8979 33.8657 36.8103 26.5174 36.9635 25.8509C36.9826 25.7674 37.0004 25.4567 36.8196 25.2926C36.6388 25.1286 36.3719 25.1846 36.1793 25.2292C35.9064 25.2925 31.5584 28.2268 23.1354 34.032C21.9012 34.8973 20.7834 35.3188 19.7819 35.2967C18.6778 35.2724 16.5539 34.6594 14.9749 34.1354C13.0383 33.4925 11.4991 33.1528 11.6331 32.0612C11.7029 31.4926 12.4698 30.9111 13.9337 30.3167Z" fill="white"/>
</g>
<defs>
<linearGradient id="paint0_linear_138_46" x1="31" y1="0" x2="31" y2="61.5402" gradientUnits="userSpaceOnUse">
<stop stop-color="#2AABEE"/>
<stop offset="1" stop-color="#229ED9"/>
</linearGradient>
<clipPath id="clip0_138_46">
<rect width="62" height="62" fill="white"/>
</clipPath>
</defs>
</svg>
