<svg width="242" height="242" viewBox="0 0 242 242" fill="none" xmlns="http://www.w3.org/2000/svg">
<g clip-path="url(#clip0_132_98)">
<path d="M171.417 201.667H25.2083C18.5251 201.659 12.1179 199 7.39219 194.274C2.66645 189.549 0.00800545 183.142 0 176.458L0 25.2083C0 11.3135 11.3135 0 25.2083 0H105.875C106.926 5.9995e-05 107.951 0.328601 108.806 0.93968C109.661 1.55076 110.304 2.41382 110.644 3.40817L176.186 194.991C176.441 195.751 176.513 196.559 176.395 197.351C176.277 198.143 175.972 198.896 175.507 199.548C175.041 200.199 174.428 200.731 173.717 201.099C173.006 201.468 172.217 201.662 171.417 201.667ZM25.2083 10.0833C16.8694 10.0833 10.0833 16.8694 10.0833 25.2083V176.458C10.0833 184.797 16.8694 191.583 25.2083 191.583H164.358L102.275 10.0833H25.2083Z" fill="url(#paint0_linear_132_98)"/>
<path d="M216.792 242H136.125C135.1 242 134.098 241.687 133.255 241.104C132.412 240.52 131.767 239.693 131.406 238.733L116.281 198.4C115.81 197.148 115.856 195.761 116.408 194.543C116.96 193.325 117.974 192.377 119.225 191.906C120.477 191.435 121.864 191.481 123.082 192.033C124.3 192.585 125.248 193.599 125.719 194.85L139.624 231.917H216.792C225.131 231.917 231.917 225.131 231.917 216.792V65.5416C231.917 57.2027 225.131 50.4166 216.792 50.4166H121C119.663 50.4166 118.381 49.8855 117.435 48.94C116.49 47.9945 115.958 46.7121 115.958 45.375C115.958 44.0378 116.49 42.7555 117.435 41.81C118.381 40.8645 119.663 40.3333 121 40.3333H216.792C230.687 40.3333 242 51.6468 242 65.5416V216.792C242 230.686 230.687 242 216.792 242Z" fill="url(#paint1_linear_132_98)"/>
<path d="M136.125 242C135.155 242.001 134.206 241.722 133.391 241.196C132.575 240.671 131.929 239.922 131.529 239.039C131.129 238.155 130.992 237.175 131.135 236.216C131.277 235.257 131.694 234.359 132.334 233.631L167.625 193.297C168.062 192.799 168.592 192.391 169.186 192.098C169.78 191.804 170.426 191.63 171.087 191.586C171.748 191.542 172.411 191.629 173.038 191.841C173.666 192.053 174.246 192.387 174.744 192.824C175.243 193.26 175.65 193.79 175.944 194.384C176.238 194.978 176.411 195.624 176.455 196.285C176.499 196.946 176.413 197.609 176.201 198.237C175.988 198.864 175.654 199.444 175.218 199.942L139.926 240.276C139.452 240.817 138.867 241.251 138.212 241.548C137.556 241.845 136.845 241.999 136.125 242ZM95.7916 141.167C94.751 141.168 93.7355 140.847 92.8849 140.248C92.0344 139.648 91.3907 138.8 91.0424 137.819L70.5833 80.5356L50.1242 137.819C49.6749 139.079 48.7437 140.108 47.5354 140.681C46.327 141.254 44.9405 141.324 43.681 140.874C42.4214 140.425 41.3919 139.494 40.8189 138.285C40.2459 137.077 40.1764 135.691 40.6257 134.431L65.834 63.8476C67.2659 59.8345 73.9007 59.8345 75.3225 63.8476L100.531 134.431C100.802 135.191 100.887 136.005 100.778 136.805C100.669 137.604 100.37 138.366 99.9056 139.026C99.4412 139.686 98.8252 140.225 98.1093 140.597C97.3935 140.97 96.5986 141.165 95.7916 141.167Z" fill="url(#paint2_linear_132_98)"/>
<path d="M80.6667 110.917H60.5C59.1629 110.917 57.8805 110.385 56.935 109.44C55.9895 108.494 55.4584 107.212 55.4584 105.875C55.4584 104.538 55.9895 103.255 56.935 102.31C57.8805 101.364 59.1629 100.833 60.5 100.833H80.6667C82.0038 100.833 83.2862 101.364 84.2317 102.31C85.1772 103.255 85.7084 104.538 85.7084 105.875C85.7084 107.212 85.1772 108.494 84.2317 109.44C83.2862 110.385 82.0038 110.917 80.6667 110.917ZM216.792 110.917H146.208C144.871 110.917 143.589 110.385 142.643 109.44C141.698 108.494 141.167 107.212 141.167 105.875C141.167 104.538 141.698 103.255 142.643 102.31C143.589 101.364 144.871 100.833 146.208 100.833H216.792C218.129 100.833 219.411 101.364 220.357 102.31C221.302 103.255 221.833 104.538 221.833 105.875C221.833 107.212 221.302 108.494 220.357 109.44C219.411 110.385 218.129 110.917 216.792 110.917Z" fill="url(#paint3_linear_132_98)"/>
<path d="M176.458 110.917C175.121 110.917 173.839 110.385 172.893 109.44C171.948 108.495 171.417 107.212 171.417 105.875V95.7917C171.417 94.4545 171.948 93.1722 172.893 92.2267C173.839 91.2812 175.121 90.75 176.458 90.75C177.795 90.75 179.078 91.2812 180.023 92.2267C180.969 93.1722 181.5 94.4545 181.5 95.7917V105.875C181.5 107.212 180.969 108.495 180.023 109.44C179.078 110.385 177.795 110.917 176.458 110.917ZM161.333 171.417C160.259 171.429 159.208 171.097 158.337 170.469C157.465 169.84 156.818 168.948 156.49 167.925C156.163 166.901 156.173 165.8 156.518 164.782C156.864 163.764 157.526 162.884 158.409 162.271C180.482 146.592 196.625 114.607 196.625 105.885C196.625 104.548 197.156 103.266 198.102 102.32C199.047 101.375 200.329 100.843 201.667 100.843C203.004 100.843 204.286 101.375 205.232 102.32C206.177 103.266 206.708 104.548 206.708 105.885C206.708 119.175 187.278 154.134 164.257 170.499C163.4 171.097 162.379 171.417 161.333 171.417Z" fill="url(#paint4_linear_132_98)"/>
<path d="M201.667 181.5C200.408 181.505 199.194 181.033 198.269 180.179C194.608 176.831 162.392 147.076 156.665 132.979C156.214 131.752 156.258 130.397 156.787 129.201C157.316 128.006 158.289 127.062 159.501 126.57C160.712 126.078 162.068 126.076 163.281 126.565C164.493 127.053 165.469 127.994 166.002 129.188C170.126 139.342 195.607 164.066 205.075 172.738C205.825 173.424 206.351 174.321 206.582 175.311C206.814 176.301 206.74 177.338 206.371 178.286C206.003 179.234 205.356 180.048 204.517 180.621C203.677 181.195 202.684 181.501 201.667 181.5Z" fill="url(#paint5_linear_132_98)"/>
</g>
<defs>
<linearGradient id="paint0_linear_132_98" x1="-62" y1="-50" x2="123" y2="173.5" gradientUnits="userSpaceOnUse">
<stop stop-color="#FF0000"/>
<stop offset="1" stop-color="#671F8B"/>
</linearGradient>
<linearGradient id="paint1_linear_132_98" x1="95.5" y1="141" x2="127" y2="180.5" gradientUnits="userSpaceOnUse">
<stop stop-color="#A21355"/>
<stop offset="1" stop-color="#671F8B"/>
</linearGradient>
<linearGradient id="paint2_linear_132_98" x1="11.5" y1="30" x2="184" y2="223.5" gradientUnits="userSpaceOnUse">
<stop stop-color="#CD0A2D"/>
<stop offset="1" stop-color="#671F8B"/>
</linearGradient>
<linearGradient id="paint3_linear_132_98" x1="55.4584" y1="105.875" x2="173" y2="106" gradientUnits="userSpaceOnUse">
<stop stop-color="#B11047"/>
<stop offset="1" stop-color="#761C7D"/>
</linearGradient>
<linearGradient id="paint4_linear_132_98" x1="145.5" y1="81.5" x2="156" y2="106.5" gradientUnits="userSpaceOnUse">
<stop stop-color="#8A186A"/>
<stop offset="1" stop-color="#761C7D"/>
</linearGradient>
<linearGradient id="paint5_linear_132_98" x1="25.5" y1="-22" x2="300.5" y2="298.5" gradientUnits="userSpaceOnUse">
<stop stop-color="#FF0000"/>
<stop offset="0.51471" stop-color="#7C1D83"/>
<stop offset="1" stop-color="#0038FF"/>
</linearGradient>
<clipPath id="clip0_132_98">
<rect width="242" height="242" fill="white"/>
</clipPath>
</defs>
</svg>
