<svg width="62" height="62" viewBox="0 0 62 62" fill="none" xmlns="http://www.w3.org/2000/svg">
<path d="M62 31.7266C62 48.4455 48.4455 62 31.7266 62C15.0075 62 1.45312 48.4455 1.45312 31.7266C1.45312 15.0075 15.0075 1.45312 31.7266 1.45312C48.4455 1.45312 62 15.0075 62 31.7266Z" fill="#4D77A2"/>
<path fill-rule="evenodd" clip-rule="evenodd" d="M30.583 45.0043H32.9597C32.9597 45.0043 33.6765 44.926 34.0427 44.53C34.3793 44.1671 34.3694 43.4865 34.3694 43.4865C34.3694 43.4865 34.3219 40.2982 35.8028 39.8292C37.2627 39.3654 39.1334 42.9096 41.1202 44.2718C42.6222 45.3047 43.7631 45.0782 43.7631 45.0782L49.0699 45.0044C49.0699 45.0044 51.8473 44.8332 50.5298 42.6494C50.4217 42.4696 49.763 41.0335 46.5825 38.0823C43.2546 34.9941 43.6998 35.492 47.7103 30.1483C50.1528 26.894 51.1279 24.9076 50.8248 24.0562C50.5324 23.2446 48.738 23.4608 48.738 23.4608L42.7591 23.4976C42.7591 23.4976 42.3165 23.437 41.9871 23.632C41.6656 23.8243 41.46 24.275 41.46 24.275C41.46 24.275 40.514 26.7943 39.252 28.9333C36.5906 33.4553 35.5261 33.6925 35.0913 33.4132C34.0796 32.757 34.3324 30.7838 34.3324 29.3819C34.3324 25.0019 34.9964 23.1758 33.0385 22.7045C32.3903 22.5467 31.9108 22.4433 30.2508 22.4278C28.1166 22.4041 26.3115 22.4334 25.2892 22.9338C24.6093 23.2658 24.085 24.0092 24.4038 24.051C24.7991 24.1034 25.6949 24.2936 26.1693 24.9393C26.7805 25.7717 26.7595 27.6421 26.7595 27.6421C26.7595 27.6421 27.1126 32.7991 25.9374 33.4394C25.131 33.8801 24.027 32.9809 21.6528 28.8805C20.4381 26.7808 19.5211 24.4597 19.5211 24.4597C19.5211 24.4597 19.3445 24.0272 19.0284 23.795C18.6436 23.5129 18.1088 23.4241 18.1088 23.4241L12.4301 23.4606C12.4301 23.4606 11.5766 23.484 11.2631 23.8559C10.9864 24.1849 11.2424 24.8677 11.2424 24.8677C11.2424 24.8677 15.6874 35.2708 20.7228 40.5123C25.3393 45.3206 30.583 45.0043 30.583 45.0043Z" fill="white"/>
</svg>
