<svg width="279" height="279" viewBox="0 0 279 279" fill="none" xmlns="http://www.w3.org/2000/svg">
<path d="M219.716 166.779C214.471 139.291 190.037 118.575 161.517 118.575C140.94 118.575 121.909 129.372 111.189 146.608C105.832 144.213 100.03 142.979 94.1625 142.987C71.0858 142.987 52.3125 161.761 52.3125 184.837C52.3125 186.037 52.3683 187.244 52.473 188.444C34.3624 191.826 20.925 207.827 20.925 226.419C20.925 247.717 38.2544 265.05 59.5561 265.05H215.814C242.964 265.05 265.05 242.964 265.05 215.817C265.05 202.181 259.61 189.514 249.719 180.143C241.531 172.403 230.947 167.688 219.716 166.779ZM215.81 251.1H59.5596C53.0154 251.094 46.7411 248.491 42.1133 243.864C37.4856 239.237 34.8824 232.963 34.875 226.419C34.875 214.136 44.0542 203.628 56.2186 201.965L69.5303 200.151L67.3437 192.426C66.6358 189.958 66.272 187.405 66.2625 184.837C66.2625 169.454 78.7792 156.937 94.1625 156.937C99.8437 156.937 105.323 158.646 109.999 161.886L116.849 166.619L120.308 159.051C127.677 142.935 143.852 132.525 161.517 132.525C184.967 132.525 204.797 150.838 206.662 174.215L207.203 180.987L213.99 180.625C218.775 180.356 223.564 181.074 228.061 182.733C232.557 184.392 236.665 186.958 240.128 190.271C243.612 193.549 246.383 197.508 248.271 201.903C250.158 206.298 251.121 211.034 251.1 215.817C251.1 235.274 235.263 251.1 215.81 251.1ZM94.1625 132.525C115.314 132.525 132.525 115.314 132.525 94.1625C132.525 73.0108 115.314 55.8 94.1625 55.8C73.0109 55.8 55.8 73.0108 55.8 94.1625C55.8 115.314 73.0109 132.525 94.1625 132.525ZM94.1625 69.75C107.624 69.75 118.575 80.7007 118.575 94.1625C118.575 107.624 107.624 118.575 94.1625 118.575C80.7008 118.575 69.75 107.624 69.75 94.1625C69.75 80.7007 80.7008 69.75 94.1625 69.75ZM87.1875 20.925H101.138V41.85H87.1875V20.925ZM37.4418 47.3079L47.308 37.4418L62.1055 52.2427L52.2428 62.1054L37.4418 47.3079ZM20.925 87.1875H41.85V101.137H20.925V87.1875ZM37.4418 141.017L52.2428 126.22L62.1055 136.082L47.308 150.883L37.4418 141.017ZM146.475 87.1875H167.4V101.137H146.475V87.1875ZM126.22 52.2427L141.021 37.4418L150.883 47.3044L136.086 62.1054L126.22 52.2427Z" fill="url(#paint0_linear_132_113)"/>
<defs>
<linearGradient id="paint0_linear_132_113" x1="-48.5" y1="21" x2="330" y2="362.5" gradientUnits="userSpaceOnUse">
<stop stop-color="#FF0000"/>
<stop offset="1" stop-color="#0029FF"/>
</linearGradient>
</defs>
</svg>
