<svg width="21" height="21" viewBox="0 0 21 21" fill="none" xmlns="http://www.w3.org/2000/svg">
<mask id="mask0_30_127" style="mask-type:alpha" maskUnits="userSpaceOnUse" x="0" y="0" width="21" height="21">
<rect x="0.170898" y="0.0727539" width="20.1314" height="20.1314" fill="#D9D9D9"/>
</mask>
<g mask="url(#mask0_30_127)">
<path d="M10.236 17.6899C9.6488 17.6899 9.15251 17.4872 8.74709 17.0818C8.34166 16.6763 8.13895 16.18 8.13895 15.5929C8.13895 15.0057 8.34166 14.5094 8.74709 14.104C9.15251 13.6986 9.6488 13.4959 10.236 13.4959C10.8231 13.4959 11.3194 13.6986 11.7249 14.104C12.1303 14.5094 12.333 15.0057 12.333 15.5929C12.333 16.18 12.1303 16.6763 11.7249 17.0818C11.3194 17.4872 10.8231 17.6899 10.236 17.6899ZM5.49671 12.9506L3.73522 11.1472C4.56004 10.3224 5.52817 9.6688 6.63958 9.18649C7.751 8.70417 8.9498 8.46302 10.236 8.46302C11.5221 8.46302 12.7209 8.70767 13.8324 9.19697C14.9438 9.68628 15.9119 10.3503 16.7367 11.1891L14.9752 12.9506C14.3601 12.3355 13.6471 11.8532 12.8363 11.5037C12.0254 11.1542 11.1587 10.9794 10.236 10.9794C9.31328 10.9794 8.44651 11.1542 7.63567 11.5037C6.82482 11.8532 6.11184 12.3355 5.49671 12.9506ZM1.93178 9.3857L0.170288 7.62421C1.45646 6.31008 2.95932 5.28254 4.67887 4.54159C6.39843 3.80065 8.25079 3.43018 10.236 3.43018C12.2211 3.43018 14.0735 3.80065 15.7931 4.54159C17.5126 5.28254 19.0155 6.31008 20.3016 7.62421L18.5402 9.3857C17.4637 8.30924 16.216 7.46693 14.797 6.8588C13.378 6.25066 11.8577 5.9466 10.236 5.9466C8.61428 5.9466 7.09394 6.25066 5.67496 6.8588C4.25598 7.46693 3.00825 8.30924 1.93178 9.3857Z" fill="#1C1B1F"/>
</g>
</svg>
