<svg width="68" height="48" viewBox="0 0 68 48" fill="none" xmlns="http://www.w3.org/2000/svg">
<g clip-path="url(#clip0_138_39)">
<path fill-rule="evenodd" clip-rule="evenodd" d="M26.979 32.8518L26.9762 13.6772L45.3503 23.2969L26.979 32.8518ZM67.32 10.3539C67.32 10.3539 66.6542 5.65271 64.617 3.58024C62.0302 0.861177 59.1331 0.848471 57.8043 0.690353C48.2885 0 34.0156 0 34.0156 0H33.9844C33.9844 0 19.7115 0 10.1957 0.691765C8.8655 0.848471 5.96983 0.861177 3.38158 3.58024C1.343 5.65129 0.68 10.3539 0.68 10.3539C0.68 10.3539 0 15.8781 0 21.3995V26.5779C0 32.1007 0.68 37.6221 0.68 37.6221C0.68 37.6221 1.343 42.3247 3.38158 44.3958C5.96983 47.1148 9.367 47.0301 10.88 47.3139C16.32 47.8376 34 48 34 48C34 48 48.2885 47.9788 57.8043 47.2871C59.1331 47.1275 62.0302 47.1148 64.617 44.3958C66.6556 42.3247 67.32 37.6221 67.32 37.6221C67.32 37.6221 68 32.1021 68 26.5779V21.3995C68 15.8781 67.32 10.3539 67.32 10.3539Z" fill="#CE1312"/>
<path d="M46.64 23.7691L25.94 34.7244V12.8139L46.64 23.7691Z" fill="#D9D9D9"/>
</g>
<defs>
<clipPath id="clip0_138_39">
<rect width="68" height="48" fill="white"/>
</clipPath>
</defs>
</svg>
